<?xml version="1.0" encoding="utf-8"?>
<!-- Generator: Adobe Illustrator 24.1.1, SVG Export Plug-In . SVG Version: 6.00 Build 0)  -->
<svg version="1.1" id="Layer_1" xmlns="http://www.w3.org/2000/svg" xmlns:xlink="http://www.w3.org/1999/xlink" x="0px" y="0px"
	 viewBox="0 0 512 512" style="enable-background:new 0 0 512 512;" xml:space="preserve">
<style type="text/css">
	.st0{fill:#231F20;}
</style>
<g>
	<path class="st0" d="M104.8,435.1h307l-33.3,33c-10,10-10,26.3,0,36.3c10,10,26.3,10,36.3,0l76.8-76.8c10-10,10.1-26.1,0.1-36.2
		l-0.1-0.1l-76.8-76.8c-9.9-10-26.1-10.1-36.2-0.1l-0.1,0.1c-10,9.9-10.1,26.1-0.1,36.2l0.1,0.1l33.3,33h-307
		c-22,0.4-40.3-17.1-40.7-39.1v0v-63.2c0-14.1-11.5-25.6-25.6-25.6s-25.6,11.5-25.6,25.6v63.2C13.3,395.1,54.5,435.5,104.8,435.1z"
		/>
	<path class="st0" d="M97.1,197.4c10,10,26.3,10,36.3,0c10-10,10-26.3,0-36.3l-33.3-33h307c22-0.4,40.3,17.1,40.7,39.1v0v63.2
		c0,14.1,11.5,25.6,25.6,25.6c14.1,0,25.6-11.5,25.6-25.6v-63.2c-0.4-50.3-41.5-90.7-91.9-90.3h-307l33.3-33
		c10-10,10.1-26.1,0.1-36.2l-0.1-0.1c-9.9-10-26.1-10.1-36.2-0.1l-0.1,0.1L20.3,84.3c-10,9.9-10.1,26.1-0.1,36.2l0.1,0.1L97.1,197.4
		z"/>
</g>
</svg>
